<?xml version="1.0" encoding="UTF-8"?>
<svg id="Grid" xmlns="http://www.w3.org/2000/svg" viewBox="0 0 457.04 151.83">
  <defs>
    <style>
      .cls-1 {
        fill: #d7d1c5;
      }

      .cls-1, .cls-2, .cls-3, .cls-4 {
        stroke: #231f20;
        stroke-width: 3px;
      }

      .cls-1, .cls-3, .cls-4 {
        stroke-linecap: round;
        stroke-linejoin: round;
      }

      .cls-2 {
        fill: #fff;
        stroke-miterlimit: 10;
      }

      .cls-3 {
        fill: #ffe696;
      }

      .cls-4 {
        fill: none;
      }

      .cls-5 {
        fill: #231f20;
      }

      .cls-6, .cls-7 {
        fill: #1b1b1b;
      }

      .cls-7 {
        fill-rule: evenodd;
      }
    </style>
  </defs>
  <g>
    <polygon class="cls-4" points="437.61 133.51 49.89 133.51 96.89 44.09 437.61 44.09 437.61 133.51"/>
    <polygon class="cls-1" points="437.61 133.51 408.13 106.74 408.16 17.35 437.61 44.09 437.61 133.51"/>
    <polygon class="cls-5" points="436.49 134.51 48.77 134.51 19.43 107.79 407.01 107.74 436.49 134.51"/>
    <rect class="cls-3" x="20.41" y="17.32" width="387.72" height="89.42"/>
  </g>
  <g>
    <path class="cls-6" d="M117.98,48.7c.23.13.39.31.5.52.11.21.09.47-.06.76l-3.38,4.8c-.15.23-.3.36-.47.39-.17.03-.37-.02-.61-.17-.65-.49-1.37-.87-2.16-1.14-.79-.27-1.62-.4-2.5-.4-1.09,0-2.1.21-3.02.62-.92.41-1.71.98-2.38,1.7-.67.72-1.19,1.56-1.56,2.52-.37.96-.56,1.99-.56,3.08s.19,2.12.56,3.07c.37.95.89,1.79,1.56,2.5.67.71,1.46,1.28,2.38,1.69.92.41,1.93.62,3.02.62.88,0,1.72-.14,2.52-.41.8-.27,1.53-.66,2.18-1.15.24-.15.44-.21.6-.18s.32.15.48.36l3.42,4.92c.15.29.17.54.06.74-.11.2-.27.37-.5.5-1.25.84-2.6,1.49-4.05,1.95-1.45.46-2.97.69-4.57.69-1.41,0-2.77-.18-4.07-.54-1.3-.36-2.52-.87-3.65-1.54-1.13-.67-2.16-1.46-3.09-2.39-.93-.93-1.72-1.95-2.39-3.08-.67-1.13-1.18-2.34-1.54-3.64-.36-1.3-.54-2.66-.54-4.07s.18-2.77.54-4.07c.36-1.3.87-2.52,1.54-3.66.67-1.14,1.46-2.18,2.39-3.11.93-.93,1.96-1.73,3.09-2.39,1.13-.66,2.35-1.17,3.65-1.54,1.3-.37,2.66-.55,4.07-.55,1.6,0,3.11.22,4.53.67,1.42.45,2.76,1.09,4.01,1.93Z"/>
    <path class="cls-6" d="M122.78,63.56c0-1.23.16-2.41.47-3.54.31-1.13.75-2.18,1.32-3.15s1.25-1.85,2.04-2.64c.79-.79,1.68-1.47,2.65-2.03s2.02-.99,3.15-1.3,2.3-.46,3.53-.46c1.81,0,3.52.34,5.11,1.01,1.59.67,2.98,1.6,4.16,2.78,1.18,1.18,2.11,2.57,2.8,4.16.69,1.59,1.03,3.32,1.03,5.17,0,1.23-.16,2.4-.47,3.53-.31,1.13-.75,2.18-1.32,3.15-.57.97-1.25,1.86-2.04,2.65-.79.79-1.68,1.47-2.65,2.04-.97.57-2.02,1-3.13,1.31s-2.28.46-3.49.46-2.4-.15-3.53-.46-2.18-.74-3.15-1.31c-.97-.57-1.86-1.25-2.65-2.04s-1.47-1.68-2.04-2.65c-.57-.97-1.01-2.02-1.32-3.15-.31-1.13-.47-2.3-.47-3.53ZM130.08,63.56c0,.88.14,1.7.41,2.47s.66,1.43,1.16,1.99c.5.56,1.11,1,1.82,1.33.71.33,1.52.49,2.41.49s1.65-.16,2.35-.49c.7-.33,1.29-.77,1.78-1.33.49-.56.86-1.22,1.12-1.99s.39-1.59.39-2.47-.13-1.67-.39-2.44-.63-1.45-1.12-2.04c-.49-.59-1.08-1.05-1.78-1.39-.7-.34-1.48-.51-2.35-.51s-1.7.17-2.41.51-1.32.8-1.82,1.39c-.5.59-.89,1.27-1.16,2.04s-.41,1.59-.41,2.44Z"/>
    <path class="cls-6" d="M154.41,51.2c.17-.15.36-.24.55-.28s.38-.06.55-.06h3.02c.24,0,.45.04.62.13s.32.2.44.35.22.31.29.5c.07.19.14.38.21.58l.42,1.75c.2-.41.52-.84.97-1.28s1-.84,1.66-1.2c.66-.36,1.42-.66,2.29-.89s1.83-.35,2.9-.35c1.52,0,2.88.29,4.07.88s2.21,1.38,3.04,2.39c.83,1.01,1.47,2.19,1.9,3.54.43,1.35.65,2.79.65,4.33v13.1c0,.51-.11.89-.33,1.15-.22.26-.57.39-1.05.39h-4.62c-.57,0-.97-.1-1.18-.29s-.32-.57-.32-1.13v-13.02c0-.57-.13-1.12-.39-1.63-.26-.51-.6-.97-1.03-1.36-.43-.39-.91-.7-1.45-.93-.54-.23-1.09-.34-1.65-.34-.48,0-.97.11-1.47.32s-.96.51-1.38.89-.77.83-1.06,1.34c-.29.51-.45,1.07-.49,1.67v13c0,.23-.04.45-.13.68-.09.23-.22.4-.39.52-.17.11-.34.18-.49.22s-.33.06-.53.06h-4.52c-.57,0-.99-.14-1.24-.42s-.38-.65-.38-1.12v-22.37c0-.25.06-.49.17-.7s.27-.38.47-.5l-.12.06Z"/>
    <path class="cls-6" d="M185.22,46.88c0-.41.14-.72.41-.93.27-.21.66-.4,1.17-.59l4.54-1.58c.07-.01.13-.02.19-.02h.17c.49,0,.82.14.99.43s.25.66.25,1.13l-.02,5.5h2.74c.43,0,.77.13,1.04.38.27.25.4.63.4,1.14v3.86c0,.56-.13.97-.4,1.23-.27.26-.61.39-1.04.39h-2.74l.02,16.88c0,.51-.15.89-.44,1.15-.29.26-.7.39-1.22.39h-4.52c-1.03,0-1.54-.51-1.54-1.54l-.02-16.88h-2.06c-1.03,0-1.54-.54-1.54-1.62v-3.86c0-1.01.51-1.52,1.54-1.52h2.06l.02-3.94Z"/>
    <path class="cls-6" d="M227.56,74.76c0,.23-.04.44-.12.65-.08.21-.21.37-.4.49-.15.15-.32.24-.52.28s-.37.06-.52.06h-3.94c-.28,0-.51-.04-.68-.11-.17-.07-.31-.18-.42-.31-.11-.13-.2-.3-.27-.49s-.15-.4-.23-.63l-.26-.9c-.36.36-.77.71-1.23,1.06-.46.35-.97.66-1.52.93-.55.27-1.15.49-1.78.66s-1.29.25-1.97.25c-1.21,0-2.38-.15-3.49-.46-1.11-.31-2.15-.74-3.12-1.31-.97-.57-1.84-1.25-2.63-2.04-.79-.79-1.46-1.68-2.03-2.65-.57-.97-1-2.02-1.31-3.15-.31-1.13-.46-2.3-.46-3.53,0-1.85.34-3.58,1.02-5.17.68-1.59,1.61-2.98,2.78-4.16,1.17-1.18,2.55-2.11,4.14-2.78,1.59-.67,3.29-1.01,5.1-1.01.83,0,1.6.09,2.31.28.71.19,1.37.44,1.96.76.59.32,1.13.7,1.61,1.15.48.45.9.93,1.26,1.45l.58-1.82c.13-.33.24-.6.33-.81.09-.21.18-.36.28-.46s.22-.17.37-.2c.15-.03.35-.05.62-.05h2.98c.15,0,.32.02.52.06s.37.13.52.28c.19.15.32.31.4.5.08.19.12.4.12.64v22.54ZM207.85,63.56c0,.88.14,1.7.41,2.47s.66,1.43,1.17,1.99c.51.56,1.12,1,1.83,1.33.71.33,1.5.49,2.37.49s1.72-.16,2.49-.49c.77-.33,1.43-.77,2-1.33.57-.56,1.01-1.22,1.33-1.99s.48-1.59.48-2.47-.16-1.67-.48-2.44-.76-1.45-1.33-2.04c-.57-.59-1.23-1.05-2-1.39-.77-.34-1.6-.51-2.49-.51s-1.66.17-2.37.51-1.32.8-1.83,1.39c-.51.59-.9,1.27-1.17,2.04s-.41,1.59-.41,2.44ZM211.63,42.84c.07-.31.2-.52.41-.65s.42-.19.65-.19h5.16c.2,0,.35.04.45.12.1.08.17.18.2.3s.04.26,0,.41-.07.3-.14.45l-1.96,4.3c-.16.29-.32.51-.47.64-.15.13-.36.2-.61.2h-4.38c-.2,0-.34-.05-.41-.16-.07-.11-.11-.23-.11-.38s.02-.31.06-.48.07-.32.1-.44l1.04-4.12Z"/>
    <path class="cls-6" d="M249.49,68.42c.19-.13.36-.22.53-.25.17-.03.29-.05.39-.05.23,0,.43.05.62.14.19.09.38.29.58.6l2.24,3.38c.07.11.13.23.19.36.06.13.09.24.09.32,0,.31-.1.56-.29.75-.19.19-.4.36-.63.51-1.09.76-2.29,1.37-3.59,1.83-1.3.46-2.68.69-4.13.69-1.2,0-2.36-.15-3.47-.46-1.12-.31-2.15-.74-3.11-1.31-.96-.57-1.84-1.25-2.64-2.04-.8-.79-1.48-1.68-2.04-2.65-.56-.97-1-2.02-1.31-3.15-.31-1.13-.47-2.3-.47-3.53s.16-2.41.47-3.54c.31-1.13.75-2.18,1.31-3.15s1.24-1.85,2.04-2.64c.8-.79,1.68-1.47,2.64-2.03.96-.56,2-.99,3.11-1.3,1.11-.31,2.27-.46,3.47-.46,1.45,0,2.8.19,4.03.58,1.23.39,2.39.96,3.47,1.72l-.06-.06c.29.17.53.38.7.61.17.23.26.52.26.87,0,.24-.08.49-.24.74l-1.78,3.02c-.37.65-.83.98-1.36.98-.12,0-.27-.03-.44-.09-.17-.06-.37-.16-.58-.31-.59-.39-1.22-.7-1.89-.95-.67-.25-1.39-.37-2.15-.37-.84,0-1.61.17-2.32.51s-1.31.8-1.81,1.39c-.5.59-.89,1.27-1.17,2.04s-.42,1.59-.42,2.44.14,1.7.42,2.47.67,1.43,1.17,1.99c.5.56,1.1,1,1.81,1.33.71.33,1.48.49,2.32.49.76,0,1.47-.13,2.14-.4.67-.27,1.3-.61,1.9-1.02Z"/>
    <path class="cls-6" d="M258.8,46.88c0-.41.13-.72.41-.93.27-.21.66-.4,1.17-.59l4.54-1.58c.07-.01.13-.02.19-.02h.17c.49,0,.82.14.99.43s.25.66.25,1.13l-.02,5.5h2.74c.43,0,.77.13,1.04.38.27.25.4.63.4,1.14v3.86c0,.56-.13.97-.4,1.23-.27.26-.61.39-1.04.39h-2.74l.02,16.88c0,.51-.15.89-.44,1.15-.29.26-.7.39-1.22.39h-4.52c-1.03,0-1.54-.51-1.54-1.54l-.02-16.88h-2.06c-1.03,0-1.54-.54-1.54-1.62v-3.86c0-1.01.51-1.52,1.54-1.52h2.06l.02-3.94Z"/>
    <path class="cls-6" d="M300.69,74.76c0,.23-.04.44-.12.65-.08.21-.21.37-.4.49-.15.15-.32.24-.52.28-.2.04-.37.06-.52.06h-3.94c-.28,0-.51-.04-.68-.11-.17-.07-.31-.18-.42-.31-.11-.13-.2-.3-.27-.49-.07-.19-.15-.4-.23-.63l-.26-.9c-.36.36-.77.71-1.23,1.06-.46.35-.97.66-1.52.93-.55.27-1.15.49-1.78.66-.63.17-1.29.25-1.97.25-1.21,0-2.38-.15-3.49-.46s-2.15-.74-3.12-1.31c-.97-.57-1.84-1.25-2.63-2.04-.79-.79-1.46-1.68-2.03-2.65-.57-.97-1-2.02-1.31-3.15-.31-1.13-.46-2.3-.46-3.53,0-1.85.34-3.58,1.02-5.17.68-1.59,1.61-2.98,2.78-4.16,1.17-1.18,2.55-2.11,4.14-2.78,1.59-.67,3.29-1.01,5.1-1.01.83,0,1.6.09,2.31.28.71.19,1.37.44,1.96.76.59.32,1.13.7,1.61,1.15.48.45.9.93,1.26,1.45l.58-1.82c.13-.33.24-.6.33-.81.09-.21.18-.36.28-.46s.22-.17.37-.2.35-.05.62-.05h2.98c.15,0,.32.02.52.06.2.04.37.13.52.28.19.15.32.31.4.5.08.19.12.4.12.64v22.54ZM280.99,63.56c0,.88.14,1.7.41,2.47s.66,1.43,1.17,1.99c.51.56,1.12,1,1.83,1.33.71.33,1.5.49,2.37.49s1.72-.16,2.49-.49c.77-.33,1.43-.77,2-1.33.57-.56,1.01-1.22,1.33-1.99s.48-1.59.48-2.47-.16-1.67-.48-2.44-.76-1.45-1.33-2.04c-.57-.59-1.23-1.05-2-1.39s-1.6-.51-2.49-.51-1.66.17-2.37.51c-.71.34-1.32.8-1.83,1.39-.51.59-.9,1.27-1.17,2.04s-.41,1.59-.41,2.44Z"/>
    <path class="cls-6" d="M306.89,51.2c.17-.15.36-.24.55-.28s.38-.06.55-.06h3.02c.24,0,.45.04.62.13s.32.2.44.35c.12.15.22.31.29.5.07.19.14.38.21.58l.42,1.75c.2-.41.52-.84.97-1.28s1-.84,1.66-1.2c.66-.36,1.42-.66,2.29-.89.87-.23,1.83-.35,2.9-.35,1.52,0,2.88.29,4.07.88s2.21,1.38,3.04,2.39c.83,1.01,1.47,2.19,1.9,3.54.43,1.35.65,2.79.65,4.33v13.1c0,.51-.11.89-.33,1.15-.22.26-.57.39-1.05.39h-4.62c-.57,0-.97-.1-1.18-.29s-.32-.57-.32-1.13v-13.02c0-.57-.13-1.12-.39-1.63-.26-.51-.6-.97-1.03-1.36-.43-.39-.91-.7-1.45-.93-.54-.23-1.09-.34-1.65-.34-.48,0-.97.11-1.47.32s-.96.51-1.38.89-.77.83-1.06,1.34c-.29.51-.45,1.07-.49,1.67v13c0,.23-.04.45-.13.68-.09.23-.22.4-.39.52-.17.11-.34.18-.49.22s-.33.06-.53.06h-4.52c-.57,0-.99-.14-1.24-.42-.25-.28-.38-.65-.38-1.12v-22.37c0-.25.06-.49.17-.7s.27-.38.47-.5l-.12.06Z"/>
    <path class="cls-6" d="M335.37,63.56c0-1.23.16-2.41.47-3.54.31-1.13.75-2.18,1.32-3.15s1.25-1.85,2.04-2.64c.79-.79,1.68-1.47,2.65-2.03.97-.56,2.02-.99,3.15-1.3s2.3-.46,3.53-.46c1.81,0,3.52.34,5.11,1.01,1.59.67,2.98,1.6,4.16,2.78,1.18,1.18,2.11,2.57,2.8,4.16.69,1.59,1.03,3.32,1.03,5.17,0,1.23-.16,2.4-.47,3.53-.31,1.13-.75,2.18-1.32,3.15-.57.97-1.25,1.86-2.04,2.65-.79.79-1.68,1.47-2.65,2.04-.97.57-2.02,1-3.13,1.31s-2.28.46-3.49.46-2.4-.15-3.53-.46-2.18-.74-3.15-1.31c-.97-.57-1.86-1.25-2.65-2.04-.79-.79-1.47-1.68-2.04-2.65-.57-.97-1.01-2.02-1.32-3.15-.31-1.13-.47-2.3-.47-3.53ZM342.67,63.56c0,.88.14,1.7.41,2.47s.66,1.43,1.16,1.99c.5.56,1.11,1,1.82,1.33.71.33,1.52.49,2.41.49s1.65-.16,2.35-.49c.7-.33,1.29-.77,1.78-1.33.49-.56.86-1.22,1.12-1.99s.39-1.59.39-2.47-.13-1.67-.39-2.44-.63-1.45-1.12-2.04c-.49-.59-1.08-1.05-1.78-1.39s-1.48-.51-2.35-.51-1.7.17-2.41.51-1.32.8-1.82,1.39c-.5.59-.89,1.27-1.16,2.04s-.41,1.59-.41,2.44Z"/>
    <path class="cls-6" d="M370.29,68.34c.36.36.75.66,1.17.91.42.25.82.45,1.21.6s.73.26,1.02.33c.29.07.49.1.6.1.25,0,.58,0,.97-.03.39-.02.77-.08,1.13-.18s.67-.26.93-.49.39-.55.39-.96c0-.37-.07-.67-.22-.89-.15-.22-.36-.41-.64-.56-.28-.15-.62-.29-1.03-.41-.41-.12-.86-.26-1.37-.42-1.6-.43-2.92-.94-3.96-1.54-1.04-.6-1.86-1.27-2.47-2.01-.61-.74-1.03-1.54-1.27-2.39s-.36-1.75-.36-2.7c0-1.11.22-2.11.66-3.02.44-.91,1.07-1.68,1.88-2.33.81-.65,1.79-1.15,2.92-1.5,1.13-.35,2.39-.53,3.78-.53.84,0,1.63.07,2.36.21s1.43.36,2.1.66c.67.3,1.32.69,1.95,1.16.63.47,1.26,1.04,1.89,1.69.23.27.34.52.35.75,0,.23-.14.48-.45.75-.52.43-1.02.85-1.49,1.26-.47.41-.96.87-1.47,1.38-.16.13-.32.22-.48.25s-.31.03-.46-.01-.29-.11-.42-.2c-.13-.09-.25-.21-.36-.34-.47-.52-1-.87-1.6-1.05s-1.16-.27-1.68-.27c-.65,0-1.17.11-1.56.34s-.57.57-.54,1.04c.03.35.16.62.39.81s.52.35.86.47c.34.12.7.22,1.08.29.38.07.73.16,1.05.25,1.2.39,2.3.81,3.3,1.26s1.87,1.01,2.6,1.67c.73.66,1.3,1.45,1.71,2.37s.61,2.04.61,3.36-.26,2.5-.79,3.54-1.25,1.91-2.17,2.62c-.92.71-2.01,1.25-3.27,1.62s-2.62.56-4.07.56c-.83,0-1.67-.07-2.52-.22s-1.68-.38-2.48-.71c-.8-.33-1.56-.75-2.28-1.26-.72-.51-1.36-1.14-1.92-1.87-.15-.19-.26-.38-.33-.59-.07-.21-.11-.41-.1-.61,0-.2.05-.38.12-.55.07-.17.19-.31.35-.43l2.58-2.58c.32-.27.6-.36.85-.28s.56.31.95.68Z"/>
  </g>
  <g id="Icons">
    <g id="Black">
      <path id="Whatsapp" class="cls-7" d="M59.2,42.35c-10.12,0-18.35,8.24-18.35,18.36,0,4.02,1.29,7.74,3.5,10.76l-2.29,6.82,7.06-2.26c2.9,1.92,6.37,3.03,10.1,3.03,10.12,0,18.35-8.24,18.35-18.36s-8.23-18.36-18.35-18.36h-.01ZM54.08,51.67c-.36-.85-.63-.88-1.17-.91-.18-.01-.39-.02-.62-.02-.7,0-1.44.2-1.88.66-.54.55-1.88,1.83-1.88,4.47s1.92,5.18,2.18,5.54c.27.36,3.74,5.84,9.14,8.07,4.22,1.75,5.47,1.59,6.43,1.38,1.4-.3,3.16-1.34,3.6-2.59.44-1.25.44-2.32.31-2.55-.13-.23-.49-.36-1.03-.63-.54-.27-3.16-1.57-3.66-1.74-.49-.18-.95-.12-1.32.4-.52.72-1.03,1.46-1.44,1.9-.32.35-.85.39-1.29.2-.59-.25-2.26-.83-4.31-2.66-1.59-1.41-2.67-3.17-2.98-3.7-.31-.54-.03-.85.22-1.14.27-.33.53-.57.8-.89.27-.31.42-.47.59-.84.18-.36.05-.72-.08-.99-.13-.27-1.21-2.9-1.65-3.97Z"/>
    </g>
  </g>
  <path class="cls-2" d="M387.38,82.59c-.33,0-.6.27-.6.6v3.62c0,.34.27.6.6.6s.6-.26.6-.6v-3.62c0-.33-.26-.6-.6-.6ZM374.11,99.48h-3.62c-.34,0-.61.26-.61.6s.27.6.61.6h3.62c.34,0,.61-.27.61-.6s-.27-.6-.61-.6ZM378.16,90l-2.42-2.41c-.11-.12-.26-.18-.43-.18-.54,0-.79.67-.43,1.03l2.42,2.41c.55.55,1.4-.3.85-.85ZM400.65,87.41c-.17,0-.31.06-.42.18l-2.42,2.41c-.55.55.31,1.4.85.85l2.41-2.41c.37-.36.11-1.03-.43-1.03ZM377.3,110.51l-2.42,2.41c-.37.37-.11,1.03.43,1.03.17,0,.32-.06.43-.17l2.42-2.41c.55-.55-.31-1.4-.85-.85ZM420.83,127.35l-6.4,6.39c-.27.32-.9.3-1.21,0l-6.29-6.03c-.55-.53-1.26-.74-1.95-.74s-1.39.21-1.94.72l-6.08,5.63c-.94.76-1.38.63-1.61-.18l-8.74-30.93c-.28-1-.41-1.78-.41-2.29,0-.78.39-.78.81-.78.5,0,1.28.14,2.27.42l30.9,8.99c1.25.36.7,1.08.2,1.58l-5.86,6.09c-.53.55-.75,1.25-.75,1.95,0,.69.21,1.44.77,1.98l6.29,6.04c.44.43.18.97,0,1.18Z"/>
</svg>