<?xml version="1.0" encoding="UTF-8"?>
<svg id="Grid" xmlns="http://www.w3.org/2000/svg" viewBox="0 0 51.65 34.17">
  <defs>
    <style>
      .cls-1 {
        fill: #1b1b1b;
      }
    </style>
  </defs>
  <path class="cls-1" d="M46.69,28.37h-5.48c-.59,0-1.07-.48-1.07-1.07s.48-1.07,1.07-1.07h4.41v-7l-5.37-2.73c-.36-.18-.58-.55-.58-.95v-7.7h-7.55c-.59,0-1.07-.48-1.07-1.07s.48-1.07,1.07-1.07h8.61c.59,0,1.07.48,1.07,1.07v8.12l5.37,2.73c.36.18.58.55.58.95v8.72c0,.59-.48,1.07-1.07,1.07Z"/>
  <path class="cls-1" d="M31.65,28.37h-10.13c-.31,0-.61-.14-.81-.38-.2-.24-.29-.55-.24-.86.02-.14.03-.28.03-.43,0-1.89-1.53-3.43-3.41-3.43s-3.42,1.54-3.42,3.43c0,.14,0,.29.03.42.05.31-.04.63-.24.87-.2.24-.5.38-.82.38h-7.67c-.59,0-1.07-.48-1.07-1.07V2.98c0-.59.48-1.07,1.07-1.07h26.68c.59,0,1.07.48,1.07,1.07v24.33c0,.59-.48,1.07-1.07,1.07ZM22.61,26.24h7.97V4.05H6.03v22.19h5.52c.24-2.85,2.63-5.09,5.53-5.09s5.29,2.24,5.53,5.09Z"/>
  <path class="cls-1" d="M17.08,32.26c-2.78,0-5.14-2.07-5.5-4.81-.04-.21-.05-.47-.05-.74,0-3.07,2.49-5.56,5.55-5.56s5.55,2.49,5.55,5.56c0,.26-.02.52-.06.77-.36,2.71-2.72,4.78-5.49,4.78ZM17.08,23.28c-1.88,0-3.42,1.54-3.42,3.43,0,.14,0,.29.03.42.23,1.72,1.68,2.99,3.39,2.99s3.16-1.27,3.38-2.96c.03-.17.03-.31.03-.46,0-1.89-1.53-3.43-3.41-3.43Z"/>
  <path class="cls-1" d="M36.25,32.26c-3.06,0-5.55-2.49-5.55-5.55s2.49-5.55,5.55-5.55,5.55,2.49,5.55,5.55-2.49,5.55-5.55,5.55ZM36.25,23.29c-1.89,0-3.42,1.53-3.42,3.42s1.53,3.42,3.42,3.42,3.42-1.53,3.42-3.42-1.53-3.42-3.42-3.42Z"/>
  <path class="cls-1" d="M17.24,18.77c-.26,0-.52-.09-.73-.29l-4.7-4.39c-.43-.4-.45-1.08-.05-1.51.4-.43,1.08-.45,1.51-.05l3.94,3.68,6.16-6.21c.42-.42,1.09-.42,1.51,0,.42.42.42,1.09,0,1.51l-6.89,6.94c-.21.21-.48.32-.76.32Z"/>
</svg>