<?xml version="1.0" encoding="UTF-8"?>
<svg id="Grid" xmlns="http://www.w3.org/2000/svg" viewBox="0 0 657.39 777.13">
  <defs>
    <style>
      .cls-1 {
        fill: #d6d0c4;
      }

      .cls-1, .cls-2, .cls-3, .cls-4, .cls-5, .cls-6, .cls-7, .cls-8, .cls-9, .cls-10, .cls-11, .cls-12, .cls-13, .cls-14, .cls-15, .cls-16, .cls-17, .cls-18, .cls-19, .cls-20, .cls-21, .cls-22, .cls-23, .cls-24, .cls-25, .cls-26, .cls-27, .cls-28, .cls-29, .cls-30, .cls-31, .cls-32, .cls-33, .cls-34 {
        stroke: #1b1b1b;
        stroke-miterlimit: 10;
        stroke-width: .5px;
      }

      .cls-2 {
        fill: #606060;
      }

      .cls-3 {
        fill: #e7e7e7;
      }

      .cls-4 {
        fill: #d7d1c5;
      }

      .cls-5 {
        fill: #ffe696;
      }

      .cls-6 {
        fill: #f8f1f1;
      }

      .cls-7 {
        fill: #fbfbfb;
      }

      .cls-8 {
        fill: #bc3637;
      }

      .cls-9 {
        fill: #e2e2e2;
      }

      .cls-10 {
        fill: #919191;
      }

      .cls-11 {
        fill: #515151;
      }

      .cls-12 {
        fill: #2d2d2d;
      }

      .cls-13 {
        fill: #121212;
      }

      .cls-14 {
        fill: #bbb;
      }

      .cls-15 {
        fill: #f0f0f0;
      }

      .cls-16 {
        fill: #0b0303;
      }

      .cls-17 {
        fill: #040101;
      }

      .cls-18 {
        fill: #fafafa;
      }

      .cls-19 {
        fill: #fdfdfd;
      }

      .cls-20 {
        fill: #101010;
      }

      .cls-21 {
        fill: #131313;
      }

      .cls-22 {
        fill: #b33334;
      }

      .cls-23 {
        fill: #141414;
      }

      .cls-24 {
        fill: #fff;
      }

      .cls-25 {
        fill: #151515;
      }

      .cls-26 {
        fill: #040404;
      }

      .cls-27 {
        fill: #fefefe;
      }

      .cls-28 {
        fill: #878787;
      }

      .cls-29 {
        fill: #d5cfc3;
      }

      .cls-30 {
        fill: #9f9f9f;
      }

      .cls-32 {
        fill: #050505;
      }

      .cls-33 {
        fill: #a2a2a2;
      }

      .cls-34 {
        fill: #fcfcfc;
      }
    </style>
  </defs>
  <path class="cls-31" d="M581.41,552.43l56.51,32.73-308.87,178.45L19.47,585.66l56.25-33.99-48.78-27.93-.83-1.22.25-334.16L328.56,13.52l302.14,174.91.85,1.7-.04,331.87c-.19,1.33-1.58,1.82-2.59,2.52-12.59,8.68-28.81,16.3-42.23,24.24-1.77,1.05-3.93,2.11-5.28,3.66Z"/>
  <g>
    <path class="cls-24" d="M532.84,457.84c1.4.73,5.11,3.12,6.13,3.38.58.14.88.34,1.28-.3l12.31-33.24,60.74,34.84.61,1.47-285.34,164.61L42.99,462.96l53.15-30.45,2.3-.75,57.3,32.69,58.07-33.42c1.54-3.35-.69-19.16.98-21.01l76.1-44.83-11.45-38.25,49.12-28.45,93.07,53.48c.47.55.47.61-.08,1.06-.79.65-2.01,1.06-3.02,2.01-2.66,2.5-3.93,5.24-3.86,8.97.04,2,.37,6.11.67,8.05.52,3.36,3.53,7.26,3.94,9.87.95,6.09-1.06,14.94.15,20.82.97,4.69,7.79,7.94,12.05,8.91,7.51,1.71,20.94,1.07,26.45-4.95,4.29-4.7,1.08-8.37,2.4-12.94.21-.71,1.97-2.49,2.54-3.6,2.37-4.56,1.96-8.77.93-13.64.2-.21,4.88,2.4,5.15,2.77.51.7.5,1.26.52,2.08.08,2.26-.38,8.28-.7,10.61-.91,6.75-5.71,15.21-7.02,22.18-.24,2.45,3.77,2.61,4.11,4.56-.48,5.09-1.76,10.23-2.06,15.33-.26,4.42.59,9.73.27,13.82-.14,1.83-1.28,4.21-1.32,6.61-.04,2.54.25,5.7,2.33,7.44,6.17,5.15,13.01-.16,17.89-4.11,1.15-.93,6.25-5.26,6.65-6.13,2.3-5-5.07-10.94-9.96-8.17.9-4.46.87-10.29,2.07-14.55.16-.56.15-.94.74-1.29l24.18,14.41c.32,8.43-.45,16.82-.9,25.2.68,7.76,8.35,8.87,14.26,5.59,1.91-1.06,11.45-8.63,12.34-10.15.8-1.38.46-3.4-.03-4.89.15-.32.32-.31.51,0Z"/>
    <path class="cls-28" d="M327.29,694.07L28.16,521.5V191.44c2.05,1.65,8.86,4.24,10.22,5.88.4.48.61.84.55,1.5l.22,265.16,288.13,166.94v63.15Z"/>
    <polygon class="cls-21" points="628.97 191.95 628.97 521.5 329.84 694.07 329.84 630.92 618.12 464.38 618.19 198.33 618.56 197.53 628.97 191.95"/>
    <g>
      <path class="cls-21" d="M327.29,32.93v263.84l-49.08,27.61-15.33-48.39.04-1.15,33.56-18.59.51-1.26-.1-134.14c-.6-1.98-1.5-.87-2.66-1.38-1.53-.67-5.21-3.46-6.46-3.13-.56.15-1.31,1.16-2.05,1.57-38.55,20.91-76.08,43.75-114.56,64.78l-.42,67.2c-2.18,2.5-19.57,10.34-19.88,12.37-.18,1.16.67,2.92,1.04,4.08,4.73,14.7,10.72,29.07,15.67,43.7l-.06,1.01-12.86,18.36-55.71,32.24c-8.28,1.63-18.29.13-26.56,1.05-1.55.17-2.52.83-1.24,2.32l25.47,15.94v48.41s-55.14,32.04-55.14,32.04V197.83c93.78-53.87,187-108.74,280.88-162.43,1.53-.87,3.27-2.01,4.95-2.47Z"/>
      <path class="cls-28" d="M327.29,17.08v12.53l-1.36,1.2L40.56,195.46c-1.25-.05-11.3-5.93-10.87-6.57L327.29,17.08Z"/>
    </g>
    <path class="cls-28" d="M329.84,17.08l297.59,172.06c.16.72-.42.86-.86,1.19-.98.74-8.49,5.02-9.24,5.13-.41.06-.76.07-1.11-.18L329.84,29.61v-12.53Z"/>
    <g>
      <g>
        <polygon class="cls-8" points="212.24 365.8 212.24 396.73 204.4 401.68 157.02 428.69 157.02 396.99 212.24 365.8"/>
        <polygon class="cls-8" points="154.46 461.42 99.24 429.72 99.24 399.55 154.46 431.5 154.46 461.42"/>
        <polygon class="cls-8" points="212.24 400.06 212.24 428.95 188.55 443.1 157.02 460.91 157.02 432.02 177.13 419.91 212.24 400.06"/>
        <polygon class="cls-8" points="213.25 362.22 157.53 330 168.28 313.65 225.81 344.82 213.25 362.22"/>
        <path class="cls-8" d="M154.46,398.01v30.17l-55.22-31.19v-14.32l31.06,18.8c8.07-.42,16.1-2.5,24.16-3.46Z"/>
        <path class="cls-8" d="M98.47,364.78l53.43,30.69c.09.78-1.36.73-1.95.85-6.06,1.27-12.31,1.77-18.36,3.1-17.7-11.52-37.32-21.61-54.7-33.49-.46-.32-.94.09-.67-1.14h22.24Z"/>
        <polygon class="cls-4" points="201.5 368.86 179.34 381.03 158.05 368.61 179.73 356.07 201.5 368.86"/>
        <path class="cls-4" d="M176.96,354.05c.26,1.19-.16.82-.66,1.14-6.65,4.27-14.34,7.76-21.07,11.98l-20.37-11.68-.86-1.19c7.22-3.94,14.13-8.84,21.7-12.02l21.25,11.77Z"/>
        <path class="cls-4" d="M155.32,369.98l21.63,12.43c-6.66,4.5-13.93,8.3-20.95,12.31-1.29.27-4.56-1.99-5.97-2.76-5.43-2.97-10.71-6.35-16.01-9.55,6.79-4.52,14.1-8.5,21.3-12.43Z"/>
        <polygon class="cls-4" points="109.46 368.86 131.2 356.11 152.4 368.61 131.19 380.95 109.46 368.86"/>
        <path class="cls-8" d="M210.7,363.25c-1.09,1.11-5.93,4.25-7.12,3.84l-46.34-26.82c-1.51-1.47-.42-5.6-.74-7.7l54.2,30.68Z"/>
        <path class="cls-8" d="M154.46,332.57c-.42,2.55,1.18,6.54-1.35,8.1l-45.17,25.94c-2.51.69-4.72-2.3-7.16-2.85l53.68-31.18Z"/>
      </g>
      <g>
        <g>
          <path class="cls-27" d="M294.56,122.92v129.88c-1.84-1.19-5.38-1.87-5.66-4.31v-122.26c.1-.9,4.31-3.04,5.66-3.3Z"/>
          <path class="cls-24" d="M288.26,118.91c.37-.06,3.74,2.01,3.73,2.22l-110.93,64.45c-1.96,1.5-4.61-.7-6.14-2.07l113.34-64.6Z"/>
          <path class="cls-24" d="M173.38,185.81l5.13,2.9.02,56.69c-.13,1.06-3.97,2.52-5.15,3.3v-62.89Z"/>
          <path class="cls-18" d="M240.87,221.1v-67.24c0-.39,3.58-2.52,3.58-1.02v65.96c0,.29-2.98,2.05-3.58,2.3Z"/>
          <path class="cls-34" d="M238.32,217.26c-.13.42-2.25,1.62-2.55,1.28.6-17.66-.8-35.85-.03-53.45.06-1.34.4-7.46.61-8.08.24-.71,1.32-1.06,1.97-1.36v61.61Z"/>
          <path class="cls-27" d="M261.33,272.23c.25-1.37-1.37-2.91-.53-3.81,8.27-4.22,16.45-10.15,24.73-14.17,2.95-1.43,4.1-2.27,6.98.34l-31.18,17.64Z"/>
          <g>
            <path class="cls-24" d="M286.89,127.52v123.74l-26.4,14.78-1.12-.82-12.84-39.83.05-74.51.94-1.1c13.2-7.25,25.95-15.47,39.35-22.26Z"/>
            <path class="cls-26" d="M269.51,182.24c.98,1.23-10.62,25.56-11.2,29.35-2.85,1.17-2.24-.4-1.61-2.53,1.74-5.86,7.29-20.5,10.15-25.64.52-.93,1.77-2.29,2.66-1.18Z"/>
            <path class="cls-26" d="M278.2,199.62c.32.31-.31,2.23-.49,2.83-2.5,8.39-7.54,17.14-10.14,25.65-.58,1.8-3.01,1.51-2.44-.38l10.97-27.8c.24-.52,2.02-.37,2.1-.3Z"/>
          </g>
          <g>
            <polygon class="cls-24" points="233.71 158.2 233.71 214.96 181.05 244.11 181.05 187.86 233.71 158.2"/>
            <path class="cls-26" d="M210.97,200.65l1.3,1.28-10.88,28.01c-.72,1.67-2.75.89-2.36-.79l11.94-28.5Z"/>
          </g>
        </g>
        <g>
          <path class="cls-24" d="M243.42,222.63l44.91,140.8-74.04,43.78v-42.68c.57-2.94,12.13-14.54,14.24-18.49,1.48-2.77-1.84-3.54-4.19-4.88-13.97-7.96-28.58-14.88-42.5-22.95l-17.71-50.78,79.29-44.81Z"/>
          <path class="cls-27" d="M171.84,312.62c-.97.11-1.34-.38-1.57-1.24l-16.73-47.21-.02-1.56,79.16-44.58.49,2.52-76.94,43.49-.14,2.18,16.26,45.89c.49.68.23.94-.51.51Z"/>
          <path class="cls-27" d="M237.8,220.59c.07.05.35,1.38.45,1.73l-76.39,43.77-.02,2.59,16.64,47.53c-2.99-.17-3.65-4.41-4.61-6.89-5.57-14.51-10.32-29.48-15.29-44.19l79.21-44.53Z"/>
          <path class="cls-33" d="M172.36,312.11l.51.26c.12.79.04.88-.76.76l-.26-.51c.38-.04.56-.07.51-.51Z"/>
        </g>
      </g>
    </g>
    <g>
      <path class="cls-24" d="M458.18,183.77v120.16c-7.7-4.42-15.69-8.51-23.01-13.55v-119.39l23.01,12.78Z"/>
      <polygon class="cls-24" points="433.13 289.1 411.65 277.09 411.65 157.69 433.13 169.71 433.13 289.1"/>
      <path class="cls-24" d="M460.23,185.81l22.91,13.14.04,61.97c-11.87,2.45-12.76,19.96-6.72,28.05,1.87,2.5,3.59,2.13,2.69,6.78-5.49-.63-10.97-1.38-14.22,3.93-.76,1.24-2.4,6.09-2.67,6.29-.08.06-2.02-.4-2.02-.51v-119.65Z"/>
      <path class="cls-4" d="M329.84,99.91l285.82,164.91c.77.93.7,5.28.52,6.65-.09.71.28.89-.75.74L329.84,107.58v-7.67Z"/>
      <path class="cls-24" d="M485.8,200.13l22.42,13.12.09,55.67-5.13,15.07v-14.57c0-.34-2.31-3.81-2.8-4.36-3.71-4.12-9.14-5.7-14.58-5.1v-59.82Z"/>
      <polygon class="cls-24" points="528.75 280.92 510.85 271.21 510.85 214.45 528.75 224.93 528.75 280.92"/>
      <path class="cls-4" d="M329.84,232.86l128.68,74.06c4.35,1.6,2.22,4.74,1.7,8.27-43.66-24.31-86.62-50.34-130.38-74.65v-7.67Z"/>
      <polygon class="cls-1" points="409.61 275.81 402.45 271.46 402.45 152.07 409.61 156.41 409.61 275.81"/>
      <path class="cls-1" d="M409.61,142.86c-.28.32-7.16-3.76-7.16-4.35v-63.66c2.59.66,4.95,2.39,7.16,3.83v64.17Z"/>
      <polygon class="cls-4" points="537.95 217.01 531.3 213.17 531.3 149 537.95 152.83 537.95 217.01"/>
      <polygon class="cls-1" points="409.61 342.28 402.45 337.93 402.45 285.01 409.61 289.36 409.61 342.28"/>
      <polygon class="cls-4" points="537.95 229.79 537.95 286.03 531.3 282.97 531.3 226.21 537.95 229.79"/>
      <path class="cls-4" d="M578.86,376.54l37.07,21.48c.44.73.41,5.28.26,6.4-.09.71.28.89-.76.75l-36.57-20.96v-7.67Z"/>
      <path class="cls-29" d="M576.81,382.16c-.49.5-6.61-2.9-6.91-3.56-.36-.77,1.82-4.91,1.81-6.16,5.55,1.87,5.5,4.27,5.1,9.71Z"/>
      <g>
        <path class="cls-24" d="M421.88,385.23c8.72,9.83,23.52,13.91,36.04,9.71.46,0-.42,8.24-.73,8.98-6.74,7.84-24.23,8.31-32.21,2.5-.67-.49-3.1-2.95-3.1-3.55v-17.64Z"/>
        <path class="cls-5" d="M434.54,357.24c5.9-.75,17.9-.21,21.51,5.32,4.7,7.18-8.36,10.92-13.53,11.35-4.26.36-9.34-.26-13.32-1.89-12.72-5.2-4.11-13.59,5.34-14.79Z"/>
        <path class="cls-24" d="M458.18,378.58v13.04c0,.47-1.84,1.45-2.41,1.68-6.41,2.62-17.56.33-23.61-2.77-3.17-1.62-10.33-6.9-10.31-10.66.01-2.61,1.53-.56,3.1-.02,8.34,2.88,15.89,3.4,24.54,1.55,3.12-.67,5.67-2.09,8.69-2.82Z"/>
        <path class="cls-27" d="M459.72,367.85c-.55.41-.78.16-.51-.51,1.46-8.62-9.91-12.35-16.6-12.8-8.32-.56-24.72,2.29-21.76,13.83-6.44-4.56-3.65-10.09,2.09-13.51,8.98-5.35,25.05-5.06,34.05.13,5.38,3.1,7.98,8.1,2.73,12.87Z"/>
        <path class="cls-27" d="M462.27,368.87c.14,3.42-2.31,5.42-4.95,7.06-8.64,5.34-23.63,5.52-32.72,1.22-3.06-1.45-7.69-4.56-7.07-8.27,11.56,9.95,33.19,9.97,44.74,0Z"/>
        <path class="cls-3" d="M460.23,376.79c.05-.19.88-.91,1.02-.77.78,3.45,1.52,6.67.8,10.26-.17.83-.98,3.12-1.82,3.55.6-3.54-.8-9.89,0-13.04Z"/>
        <path class="cls-30" d="M459.72,367.85c-.17.16-.33.38-.51.51-.15.28-.32.27-.51,0,.08-.14.5-.97.51-1.02l.51.51Z"/>
        <path class="cls-2" d="M459.21,368.36c-.16.11-.13.81-.76.52l-.26-.26c.19-.36.49-.23.51-.26h.51Z"/>
      </g>
      <g>
        <path class="cls-24" d="M400.41,150.53v120.16l-32.21-18.41v-8.44c0-.09-1.19-1.27-1.28-1.27-1.86-.02-1.11,5.64-1.28,6.9-.09.7.28.89-.75.74l-35.04-19.93v-120.16l70.56,40.39Z"/>
        <g>
          <path class="cls-21" d="M365.64,136.98c.35-1.21,2.56-.76,2.56,0v9.72c0,.96-2.56.96-2.56,0,0-2.14-.43-8.2,0-9.72Z"/>
          <path class="cls-21" d="M365.64,190.16c.35-1.21,2.56-.76,2.56,0v9.72c0,.96-2.56.96-2.56,0,0-2.14-.43-8.2,0-9.72Z"/>
          <path class="cls-13" d="M365.64,208.06c.35-1.21,2.56-.76,2.56,0v9.2c0,1.26-2.56,1.26-2.56,0,0-2.05-.41-7.75,0-9.2Z"/>
          <path class="cls-13" d="M365.64,172.78c.48-1.7,2.56-.86,2.56,0v9.2c0,.96-2.56.96-2.56,0,0-2.06-.42-7.74,0-9.2Z"/>
          <path class="cls-20" d="M365.64,154.88c.35-1.21,2.56-.76,2.56,0v9.2c0,.96-2.56.96-2.56,0,0-2.05-.41-7.75,0-9.2Z"/>
          <path class="cls-20" d="M365.64,225.95c.35-1.21,2.56-.76,2.56,0v9.2c0,.96-2.56.96-2.56,0,0-2.05-.41-7.75,0-9.2Z"/>
        </g>
      </g>
      <g>
        <path class="cls-24" d="M411.65,80.74c.03-.13.75-1,1.01-.52l78.67,45.34c.51,1.95-.61,10.06.57,10.94,1,.75,2.07-.12,2.07-1.05v-7.93l34.77,20.2v64.17l-79.77-46.27v-9.2c0-.88-2.05-.88-2.05,0v7.93l-35.28-20.2v-63.4Z"/>
        <g>
          <path class="cls-25" d="M491.42,162.04c.17-.62,1.6-1.05,2.04-.77.51.34,1.44,10.58-.77,11.24-.43.19-1.27-.61-1.27-.76,0-2.16-.43-8.18,0-9.72Z"/>
          <path class="cls-25" d="M491.42,144.14c.08-.27.83-.92,1.27-.76,2.2.67,1.28,10.91.77,11.24-.43.29-2.04-.24-2.04-.77,0-2.14-.43-8.2,0-9.72Z"/>
          <path class="cls-23" d="M491.42,179.93c.17-.62,1.6-1.05,2.04-.77.53.35,2,13.03-2.04,10.74.47-2.64-.65-7.69,0-9.97Z"/>
          <path class="cls-32" d="M448.98,113.72c-.59.21-2.05-.23-2.05-.77v-9.72c0-.88,2.05-.88,2.05,0v10.48Z"/>
          <path class="cls-32" d="M448.98,120.37v10.48c0,.88-2.05.88-2.05,0v-9.72c0-.54,1.45-.97,2.05-.77Z"/>
          <path class="cls-26" d="M448.98,138.26v10.74c0,.1-2.05.1-2.05,0v-10.74c0-.1,1.68.07,2.05,0Z"/>
        </g>
      </g>
      <g>
        <path class="cls-24" d="M540.51,231.83l35.28,20.2c1.86,2.24-1.7,10.27,3.07,9.45v-7.67l37.33,21.73v119.39l-42.97-24.29c-.38-.23-.44-.49-.41-.91.14-2.38,3.11-6.25,2.99-9.05l.89,6.51.9,1.15c.43.19,1.27-.61,1.27-.77v-9.72c0-.4-1.52-.64-1.51-1,4.56-13.26,9.95-26.3,13.72-39.82-.23-.7-1.97-1.5-2.67-1.97-1.42-.94-9.18-4.65-9.46-5.11-.65-1.04.78-5.35-.85-6.05-1.92-.82-1.61,2.24-1.8,3.31-.12.65.37.92-.74.77l-21.73-12.29c2.19-5.45,1.16-10.09-4.13-12.98-2.4-1.31-4.41-1.96-6.87-.29-1.13.76-1.31,2.02-2.3,2.56v-53.18Z"/>
        <path class="cls-25" d="M578.86,296.52c-.17.62-1.6,1.05-2.04.77-.76-.51-.75-10.75,0-11.25.43-.29,2.04.24,2.04.77,0,2.16.43,8.18,0,9.72Z"/>
        <path class="cls-23" d="M578.86,268.65v9.97c0,.52-1.6,1.05-2.04.77-.53-.35-2-13.03,2.04-10.74Z"/>
      </g>
      <g>
        <path class="cls-24" d="M616.18,262l-37.33-20.96v-9.2c0-.14-1.51-.87-2.17.64-.81,1.85-.14,3.91-.38,5.76-.09.71.28.88-.76.75l-35.04-20.7v-63.66c1.18.11,2.37.89,3.41,1.45,16.5,8.81,33.36,19.16,49.6,28.63,7.6,4.43,15.4,8.72,22.67,13.64v63.66Z"/>
        <path class="cls-25" d="M578.86,188.63c-.17.62-1.6,1.05-2.04.77-.51-.34-1.44-10.58.77-11.24.43-.19,1.27.61,1.27.76,0,2.16.43,8.18,0,9.72Z"/>
        <path class="cls-25" d="M578.86,206.52c-.08.27-.83.92-1.27.76-2.2-.67-1.28-10.91-.77-11.24.43-.29,2.04.24,2.04.77,0,2.14.43,8.2,0,9.72Z"/>
        <path class="cls-23" d="M578.86,213.94v10.74c-2.68.53-2.45-1.11-2.58-3.3-.14-2.32-.87-8.51,2.58-7.44Z"/>
      </g>
      <g>
        <path class="cls-24" d="M400.41,137.75l-32.21-18.66v-8.18c0-.09-1.19-1.27-1.28-1.27-1.86-.02-1.11,5.65-1.28,6.9-.09.7.28.89-.75.74l-35.04-19.93V32.93l70.56,40.65v64.17Z"/>
        <path class="cls-21" d="M365.64,75.11c.35-1.21,2.56-.76,2.56,0v9.72c0,.96-2.56.96-2.56,0,0-2.14-.43-8.2,0-9.72Z"/>
        <path class="cls-21" d="M365.64,57.22c.35-1.21,2.56-.76,2.56,0v9.72c0,.96-2.56.96-2.56,0,0-2.14-.43-8.2,0-9.72Z"/>
        <path class="cls-20" d="M365.64,93.01c.35-1.21,2.56-.76,2.56,0v9.2c0,.96-2.56.96-2.56,0,0-2.05-.41-7.75,0-9.2Z"/>
      </g>
      <g>
        <path class="cls-24" d="M400.41,336.65l-32.21-17.9v-10.48c0-.96-2.56-.96-2.56,0v8.44l-35.79-20.71v-52.92l70.56,40.65v52.92Z"/>
        <path class="cls-13" d="M365.64,272.48c.35-1.21,2.56-.76,2.56,0v9.72c0,.96-2.56.96-2.56,0,0-2.14-.43-8.2,0-9.72Z"/>
        <path class="cls-21" d="M365.64,290.38c.35-1.21,2.56-.76,2.56,0v9.72c0,.96-2.56.96-2.56,0,0-2.14-.43-8.2,0-9.72Z"/>
      </g>
      <g>
        <path class="cls-24" d="M616.18,460.91l-1.9-.4-34.39-19.81c-1.57-1.32-1.03-6.61-3.84-2.3l-22.54-13.29,15.12-43.97c.35-.26,6.86,3.33,7.19,3.8,1.75,2.42-1.7,10.31,3.03,9.5v-7.67l37.33,21.73v52.41Z"/>
        <path class="cls-25" d="M578.86,429.46c-.17.62-1.6,1.05-2.04.77-.76-.51-.75-10.75,0-11.25.43-.29,2.04.24,2.04.77,0,2.16.43,8.18,0,9.72Z"/>
        <path class="cls-23" d="M578.86,411.56c-.17.62-1.6,1.05-2.04.77-.51-.34-1.44-10.58.77-11.24.43-.19,1.27.61,1.27.76,0,2.16.43,8.18,0,9.72Z"/>
      </g>
      <g>
        <path class="cls-24" d="M448.98,319.27v-7.16c1.55.44,10.4,5.21,10.66,5.96.58,3.22-.49,7.6.09,10.65.26,1.38,1.54,1.6,1.92,2.69,1.49,4.27-1.16,10.88,4.21,13.17,2.31.99,4.52.52,6.79.9,2.56.44.97,3.37,1.49,5.64.23,1,1.34,1.69,1.32,2.57-.03,1.79-3.08,10.32-3.73,13.13-.78,3.34-1.46,6.81-1.79,10.23-.89-.71-6.36-3.21-6.64-3.59-.15-.2,1.4-3.13,1.56-4.83.86-9.65-1.42-13.69-10.26-17.4-1.05-.44-5.12-1.39-5.39-1.77-1.26-1.78,1.65-6.74-2.27-5.66v5.12c-4.24,0-8.29-.47-12.52,0-2.37.26-7.73,2.12-9.18,2.03-2.46-.16-11.1-6.28-13.58-7.91v-52.41l1.51.28,33.03,19.12c2.27,2.23-1.44,9.41,2.78,9.23Z"/>
        <path class="cls-32" d="M448.98,325.92v10.48c0,.88-2.05.88-2.05,0v-9.72c0-.54,1.45-.97,2.05-.77Z"/>
      </g>
      <g>
        <path class="cls-24" d="M538.97,458.35l-17.4-10.05c-.73-13.79,1.06-28.69.01-42.35-1.2-15.64-7.12-34.12-11.72-49.13l-.54-24.77,14.51,4.64c.73-.11.9-2.92.83-3.62,12.97,7.11,15.36-1.37,19.3-11.63,2.36-6.15,3.96-15.18,6.51-20.59.43-.91,2-3.08,2.99-2.99l35.1,20.6-49.6,139.88Z"/>
        <path class="cls-24" d="M492.81,389.98l14.34,33.97c.45,5.19-.1,10.32-.4,15.48l-24.05-14.15,7.8-35.1.64-.77,1.67.56Z"/>
        <path class="cls-24" d="M536.27,332.41c-1.98,1.63-9,.15-10.6-1.63-1-1.12.18-8.38.82-8.48l4.27,1.04c.33-2.36,1.23-4.54,2.31-6.64,2.37-4.58,10.57-15.11,11.4-19.28.14-.72.6-5.92.53-6.43-.3-2.04-3.37-2.19-2.9-4.07,1.55-6.23,11.46-1.66,10.56,4.85-.54,3.9-3.11,5.3-4.37,7.94-2.27,4.77-3.83,13.57-5.89,19.17-.94,2.56-4.48,12.15-6.15,13.53Z"/>
        <g>
          <path class="cls-4" d="M508.29,359.15c2.28,5.97,3.89,12.18,5.38,18.4,2.12,8.83,5.25,21.57,5.89,30.41,1.14,15.64-1.48,32.29-.56,48.05-1.34,4.57-6.91,5.84-10.21,2.48l.92-34.03-14.81-35.82c-3.64-2.26-8.12-2.45-12.02-4.85-1.23-.76-5.76-5.99-6.29-3.41-.52,2.53,9.16,8.3,11.75,7.92-1.1,8.45-4.13,16.62-5.97,24.95-2.31,10.5-3.55,21.2-5.57,31.76-1.44,2.44-4.43,5.7-7.51,5.07s-3.29-4.65-3.44-7.33c-.82-14.7,4.72-30.84,5.61-45.51.41-6.71-.26-13.01.59-19.86.31-2.51,4.22-21.52,5.09-22.26.4-.34,3.26-.02,4.06.19,2.9.75,5.77,4.06,8.32,5.48,6.37,3.55,12.79,1.73,18.75-1.63Z"/>
          <path class="cls-24" d="M529.21,320.25c-1.69,1.19-3.43-1.57-4.05-2.76l-24.99-15.4,9.15-28.84,33.15,18.74c.25,1.77.2,3.42-.32,5.15-1.34,4.5-8.3,13.52-10.94,18.21-.59,1.05-1.79,4.75-2,4.9Z"/>
          <path class="cls-12" d="M487.97,277.47c-1.89,2.04-.82,5.5.66,7.52.85,1.15,2.38.68,1.67,2.71-.29.82-2.11,2.44-2.94,2.7-12.09,3.74-15.72-17.84-8.74-24.59,3.76-3.63,10.23-4.62,14.99-2.69,2.36.96,7.44,5.13,7.32,7.83-.06,1.31-5.8,6.16-6.96,6.66-.42.18-3.7-2.63-6-.15Z"/>
          <path class="cls-21" d="M508.29,461.93c3.67,1.41,7.31,1.65,10.49-1.01,1.87-1.56,1.97-4.27,4.57-4.63,3.32-.47,7.28.4,7.34,4.47.01.74-4.31,4.43-5.28,5.25-3.9,3.3-8.19,7.29-13.68,6.04-.8-.18-3.43-2.3-3.43-2.7v-7.41Z"/>
          <path class="cls-6" d="M500.62,288.33c-.79,2.72-8.69,3.4-8.98,3.8-.77,1.09.11,6.68-.2,8.38-5.87,4.65-12.3-1-9.76-7.62,4.4.65,8.45.13,10.67-4.14s0-2.98-1.87-5.61c-.72-1-1.5-2.41-.63-3.54,1.49-1.93,2.74.79,2.93.82,2,.34,6.09-3.91,7.85-5.13-.62,3.34.84,10.18,0,13.04Z"/>
          <path class="cls-21" d="M465.34,451.19c4.28,1.63,7.91,1.62,11.24-1.8,1.37-1.4,1.66-3.59,3.81-3.86,3.33-.42,7.29.36,7.35,4.48.01.82-6.62,6.36-7.84,7.3-3.52,2.71-6.27,5.1-11.13,4-.8-.18-3.43-2.3-3.43-2.7v-7.41Z"/>
          <path class="cls-7" d="M498.06,301.37c-3.59-.7-5.5-3.08-4.62-6.82.12-.49,6.81-1.83,7.69-3.41l-3.07,10.23Z"/>
          <path class="cls-15" d="M467.9,405.17c.26,3.13-1.15,7.08-1.54,10.23-.12.09-1.83-.82-1.99-1.35-.19-.63,2.57-8.42,3.02-9.89.71-1,.97.13.51,1.02Z"/>
          <polygon class="cls-9" points="525.68 453.74 521.59 454.26 521.59 451.19 525.68 453.74"/>
          <path class="cls-14" d="M468.41,402.62c-.12.78.38,2.12-.51,2.56-.04-.43-.01-.88-.51-1.02.26-.86.29-1.81.51-2.56.55-.5.72-.16.51,1.02Z"/>
          <path class="cls-11" d="M468.41,402.62l-.51-1.02c.12-.39.76-2.09,1.02-1.53.47,1.03-.43,2.03-.51,2.55Z"/>
          <path class="cls-10" d="M532.84,457.84h-.51s-.31.09-.51-.25l.26-.26c.61-.31.61.44.76.52Z"/>
          <g>
            <path class="cls-19" d="M475.06,343.3c-.33.3-6.83-.37-7.81-.62-3.61-.93-2.82-7.68-2.92-10.62,1.63,1.28,6.16,1.78,7.4,3.07.31.32,3.65,7.88,3.33,8.17Z"/>
            <path class="cls-22" d="M479.65,299.84c2.22,4.81,7.03,5.89,11.78,3.84.91-.4,2.15-1.78,2.29-1.79.45-.01.88,1,.7,1.7-.5,1.87-6.07,3.38-8.01,3.09-2.31-.35-10.2-4.14-6.76-6.84Z"/>
            <g>
              <path class="cls-8" d="M505.74,308.02c6.2,3.64,12.2,7.76,18.18,11.76l-1.31,13.8c-.91.91-19.47-7.12-20.45-6.13-1.6,1.61,4.23,3.34,4.49,3.69.17.24.61,5,.64,5.75.33,6.58-.29,13.27,0,19.86-5.49,4.27-11.76,4.31-17.73.96-2.34-1.31-3.88-3.29-6.47-4.27-2.87-1.09-6.85-.34-7.03-4.26-.09-2.14,1.67-4.9,1.47-6.52-.25-1.96-3.16-7.38-4-9.83-.77-2.26-4.44-16.1-5.18-16.55-.45-.27-1.37,0-1.97-.07l4.08,15.85c-2.22-1.18-8.12-2.01-8.67-4.87-.6-3.13,1.04-6.93.5-10.21.49-4.24,2.8-15.78,6.38-18.16,2.6-1.73,6.03-.8,8.95-1.01-5.18,10.51,15.91,15.75,18.93,5.62,2.17,1.16,4.33,2.21,6.64,3.07l1.53,1.02c.14.07.39-.07.51,0,.38.61-.94,1.77-1.16,1.67-.1-.04,1.16-1.47,1.68-1.16Z"/>
              <path class="cls-16" d="M504.71,307.51c-.56-.29-1.17-.43-1.53-1.02.63.23,1.31.07,1.53,1.02Z"/>
              <path class="cls-16" d="M505.74,308.02c-.69,2.66-3.03,3.09-4.3,5.67-.8,1.63-.83,5.78-2.88,4.32-1.69-1.2,1.68-7.5,3.12-8.68,1.17-.96,2.34-1.1,3.55-1.82.21.12.35.41.51.51Z"/>
              <path class="cls-17" d="M486.06,347.39c2.78,1.73,4.58,4.77,8.23,5.1.95.08,4.04-1.23,3.26,1.29-.65,2.09-6.61.2-8.02-.66-.82-.5-6.41-5.15-3.47-5.72Z"/>
            </g>
          </g>
        </g>
      </g>
    </g>
  </g>
</svg>