<svg xmlns="http://www.w3.org/2000/svg" viewBox="0 0 100 100" width="100%" height="100%">
  <path class="fill-shape" d="M46.92,12.62H4.73c-.59,0-1.07-.48-1.07-1.07s.48-1.07,1.07-1.07h42.18c.59,0,1.07.48,1.07,1.07s-.48,1.07-1.07,1.07Z"/>
  <g>
    <path class="fill-shape" d="M16.92,15.37c-.09,0-.17-.01-.26-.03-.57-.14-.92-.72-.77-1.3l3.06-12.18c.14-.57.72-.92,1.3-.77.57.14.92.72.77,1.3l-3.06,12.18c-.12.48-.56.81-1.03.81Z"/>
    <path class="fill-shape" d="M34.74,15.37c-.48,0-.91-.32-1.03-.81l-3.06-12.18c-.14-.57.2-1.15.77-1.3.57-.14,1.15.2,1.3.77l3.06,12.18c.14.57-.2,1.15-.77,1.3-.09.02-.18.03-.26.03Z"/>
  </g>
  <path class="fill-shape" d="M24.75,26.65c-.26,0-.53-.1-.73-.29l-4.8-4.52c-.43-.4-.45-1.08-.04-1.51.4-.43,1.08-.45,1.51-.04l4.04,3.81,6.23-6.35c.41-.42,1.09-.43,1.51-.01.42.41.43,1.09.01,1.51l-6.96,7.1c-.21.21-.48.32-.76.32Z"/>
  <path class="fill-shape" d="M40.85,33.12H10.8c-.55,0-1-.41-1.06-.95l-2.13-19.98c-.06-.59.36-1.11.95-1.17.59-.06,1.11.36,1.17.95l2.03,19.02h28.13l2.03-19.02c.06-.59.58-1.02,1.17-.95.59.06,1.01.59.95,1.17l-2.13,19.98c-.06.54-.52.95-1.06.95Z"/>
</svg>