<?xml version="1.0" encoding="UTF-8"?>
<svg id="Grid" xmlns="http://www.w3.org/2000/svg" viewBox="0 0 1878 87.26">
  <defs>
    <style>
      .cls-1 {
        fill: #2d2d2d;
      }

      .cls-2 {
        fill: #131313;
      }

      .cls-3 {
        fill: none;
      }

      .cls-4 {
        fill: #868686;
      }

      .cls-5 {
        fill: #161615;
      }

      .cls-6 {
        fill: #bc3637;
      }
    </style>
  </defs>
  <path class="cls-6" d="M136.17,48.31h61.81v29.13h-61.81c-.21-.95-.41-1.91-.41-2.88-.02-7.78-.02-15.58,0-23.36,0-.97.21-1.94.42-2.88Z"/>
  <path class="cls-6" d="M134.28,48.31c.21.95.41,1.91.41,2.88.02,7.78.02,15.58,0,23.36,0,.97-.21,1.94-.42,2.88l-58.5-.24c7.47-2.88,14.34-7.68,16.04-16.05.83-4.11,1.3-8.66,1.96-12.84h40.5Z"/>
  <path class="cls-2" d="M134.28,48.31c.01-.63-.01-1.27,0-1.9h1.76c.25.03.13,1.53.14,1.9.21,9.53.22,19.6,0,29.13-.01.63.01,1.27,0,1.9h-1.76c-.25-.03-.13-1.53-.14-1.9-.21-9.53-.22-19.6,0-29.13Z"/>
  <g>
    <path class="cls-1" d="M94.49,44.28l.58.71h1747.55s2.06-.53,2.06-.53l25.28-9.65v4.74l5.68-1.89v35.76l-26.29,9.95-.92.13-1785.45.11c-1.58,0-7.1-.24-7.1-.24-.55,0-2.84-.24-2.84-.24-9.32-.8-17.15-3.17-25.58-7.1-.2-.54.02-.76.57-.67,14.87,4.94,31.18,7.41,46.29,1.89l1.44-.03,2.3-.46c18.67.08,37.3.15,55.91.23l.29.47.32.05c.16,2.06.81,1.9,1.58-.05l.23-.47h61.29l.29.47-.47-.17v-28.67l.47-.29-.23.47h-61.29l-.29-.47-.32-.05c-.16-2.06-.81-1.9-1.58.05l-.16.47h-40.04l-.29-.47c-.52-1.26-.18-2.98.71-4.03Z"/>
    <g>
      <path class="cls-6" d="M835.99,48.31c.21.95.41,1.91.41,2.88.02,7.78.02,15.58,0,23.36,0,.97-.21,1.94-.42,2.88h-61.8s0-29.37,0-29.37l61.81.24Z"/>
      <path class="cls-6" d="M1027.34,48.31c.21.95.41,1.91.41,2.88.02,7.78.02,15.58,0,23.36,0,.97-.21,1.94-.42,2.88h-61.8s0-29.37,0-29.37l61.81.24Z"/>
      <path class="cls-6" d="M1218.7,48.07l.28,1.32c.05,8.9.09,17.84,0,26.74l-.29,1.32h-61.8s0-29.37,0-29.37h61.81Z"/>
      <path class="cls-6" d="M1410.05,48.07l.28,1.32c.05,8.9.09,17.84,0,26.74l-.29,1.32h-61.8s0-29.37,0-29.37h61.81Z"/>
      <path class="cls-6" d="M644.64,48.31c.21.95.41,1.91.42,2.88.02,7.78.01,15.58,0,23.36,0,.97-.21,1.94-.41,2.88h-61.81v-29.13h61.81Z"/>
      <path class="cls-6" d="M1792.76,48.07l.28,1.32c.05,8.9.09,17.84,0,26.74l-.29,1.32h-61.81l-.29-1.31c-.07-8.9-.04-17.84,0-26.74l.28-1.31h61.81Z"/>
      <path class="cls-6" d="M1601.41,48.07l.28,1.32c.05,8.9.09,17.84,0,26.74l-.29,1.32h-61.81l-.29-1.32c-.08-8.9-.04-17.84,0-26.74l.28-1.32h61.81Z"/>
      <path class="cls-6" d="M325.63,48.31c.21.95.41,1.91.41,2.88.02,7.78.02,15.58,0,23.36,0,.97-.21,1.94-.42,2.88l-61.81.24v-29.37s61.81,0,61.81,0Z"/>
      <path class="cls-6" d="M516.99,48.31c.21.95.41,1.91.41,2.88.02,7.78.02,15.58,0,23.36,0,.97-.21,1.94-.42,2.88l-61.81.24v-29.37s61.81,0,61.81,0Z"/>
      <path class="cls-6" d="M327.53,48.31h61.81v29.13h-61.81c-.21-.95-.41-1.91-.41-2.88-.02-7.78-.02-15.58,0-23.36,0-.97.21-1.94.42-2.88Z"/>
      <path class="cls-6" d="M899.7,48.31c.21.95.41,1.91.41,2.88.02,7.78.02,15.58,0,23.36,0,.97-.21,1.94-.42,2.88h-61.81c-.21-.95-.41-1.91-.41-2.88-.02-7.78-.02-15.58,0-23.36,0-.97.21-1.94.42-2.88h61.81Z"/>
      <path class="cls-6" d="M708.34,48.31c.21.95.41,1.91.41,2.88.02,7.78.02,15.58,0,23.36,0,.97-.21,1.94-.42,2.88h-61.81c-.21-.95-.41-1.91-.42-2.88-.02-7.78-.01-15.58,0-23.36,0-.97.21-1.94.41-2.88h61.81Z"/>
      <path class="cls-6" d="M1603.3,48.31l61.81.12v29.01h-61.81c-.21-.95-.41-1.91-.41-2.88-.01-7.78-.01-15.58,0-23.37,0-.97.21-1.93.41-2.88Z"/>
      <path class="cls-6" d="M1220.59,48.31h61.81v29.13h-61.81c-.21-.95-.41-1.91-.41-2.88-.01-7.78-.01-15.58,0-23.37,0-.97.21-1.93.41-2.88Z"/>
      <path class="cls-6" d="M1411.95,48.31h61.81v29.13h-61.81c-.21-.95-.41-1.91-.41-2.88-.01-7.78-.01-15.58,0-23.37,0-.97.21-1.93.41-2.88Z"/>
      <path class="cls-6" d="M710.24,48.31h61.81v29.13h-61.81c-.21-.95-.41-1.91-.41-2.88-.02-7.78-.02-15.58,0-23.36,0-.97.21-1.94.42-2.88Z"/>
      <path class="cls-6" d="M901.59,48.31h61.81v29.13h-61.81c-.21-.95-.41-1.91-.41-2.88-.02-7.78-.02-15.58,0-23.36,0-.97.21-1.94.42-2.88Z"/>
      <path class="cls-6" d="M1029.24,48.31h61.81v29.13h-61.81c-.21-.95-.41-1.91-.41-2.88-.02-7.78-.02-15.58,0-23.36,0-.97.21-1.94.42-2.88Z"/>
      <path class="cls-6" d="M518.88,48.31h61.81v29.13h-61.81c-.21-.95-.41-1.91-.41-2.88-.02-7.78-.02-15.58,0-23.36,0-.97.21-1.94.42-2.88Z"/>
      <path class="cls-6" d="M1729.06,48.31c.21.95.41,1.91.41,2.88.02,7.78.02,15.58,0,23.36,0,.97-.21,1.94-.42,2.88h-61.81v-29.13h61.81Z"/>
      <path class="cls-6" d="M1537.7,48.31c.21.95.41,1.91.41,2.88.01,7.78.01,15.58,0,23.37,0,.97-.21,1.93-.41,2.88h-61.81v-29.13h61.81Z"/>
      <polygon class="cls-6" points="453.04 48.07 453.03 77.42 391.47 77.44 391.47 48.31 453.04 48.07"/>
      <polygon class="cls-6" points="261.69 48.07 261.67 77.42 200.12 77.44 200.12 48.31 261.69 48.07"/>
      <rect class="cls-6" x="1093.18" y="48.31" width="61.57" height="29.13"/>
      <rect class="cls-6" x="1284.54" y="48.31" width="61.57" height="29.13"/>
      <path class="cls-6" d="M1841.07,48.31c.21.9.42,1.82.42,2.74,0,7.88,0,15.77-.02,23.64,0,.93-.2,1.84-.41,2.74h-46.42c-.21-.95-.41-1.91-.41-2.88-.01-7.78-.01-15.58,0-23.37,0-.97.21-1.93.41-2.88h46.42Z"/>
      <path class="cls-6" d="M1842.97,77.44c-.21-.9-.4-1.81-.41-2.74-.02-7.88-.03-15.77-.02-23.64,0-.46.06-.91.13-1.37s.18-.92.29-1.37l23.8-8.99c.59.37.12.5.12.59v28.42l-23.92,9.12Z"/>
      <path class="cls-2" d="M1601.41,48.07c.02-.55-.01-1.11,0-1.66h1.9c.01.63-.02,1.27,0,1.9.22,9.52.22,19.61,0,29.13-.01.63.01,1.27,0,1.9h-1.76c-.25-.03-.13-1.53-.14-1.9-.21-9.57-.27-19.8,0-29.37Z"/>
      <path class="cls-2" d="M1537.7,48.31c.01-.63-.01-1.27,0-1.9h1.9c.01.55-.02,1.11,0,1.66.27,9.56.21,19.79,0,29.37,0,.37.12,1.86-.14,1.9h-1.76c-.01-.63.02-1.27,0-1.9-.22-9.52-.22-19.61,0-29.13Z"/>
      <path class="cls-2" d="M644.64,48.31c0-.37-.12-1.86.14-1.9h1.76c.01.63-.02,1.27,0,1.9.22,9.53.21,19.6,0,29.13,0,.37.12,1.86-.14,1.9h-1.76c-.01-.63.02-1.27,0-1.9-.22-9.53-.21-19.6,0-29.13Z"/>
      <path class="cls-2" d="M1410.05,48.07c.02-.55-.01-1.11,0-1.66h1.9c.01.63-.02,1.27,0,1.9.22,9.52.22,19.61,0,29.13-.01.63.01,1.27,0,1.9h-1.76c-.25-.03-.13-1.53-.14-1.9-.21-9.57-.27-19.8,0-29.37Z"/>
      <path class="cls-2" d="M1792.76,48.07c.02-.55-.01-1.11,0-1.66h1.9c.01.63-.02,1.27,0,1.9.22,9.52.22,19.61,0,29.13-.01.63.01,1.27,0,1.9h-1.76c-.25-.03-.13-1.53-.14-1.9-.21-9.57-.27-19.8,0-29.37Z"/>
      <path class="cls-2" d="M516.99,48.31c.01-.63-.01-1.27,0-1.9h1.76c.25.03.13,1.53.14,1.9.21,9.53.22,19.6,0,29.13-.01.63.01,1.27,0,1.9h-1.76c-.25-.03-.13-1.53-.14-1.9-.21-9.53-.22-19.6,0-29.13Z"/>
      <path class="cls-2" d="M325.63,48.31c.01-.63-.01-1.27,0-1.9h1.76c.25.03.13,1.53.14,1.9.21,9.53.22,19.6,0,29.13-.01.63.01,1.27,0,1.9h-1.76c-.25-.03-.13-1.53-.14-1.9-.21-9.53-.22-19.6,0-29.13Z"/>
      <path class="cls-2" d="M1218.7,48.07c.02-.55-.01-1.11,0-1.66h1.9c.01.63-.02,1.27,0,1.9.22,9.52.22,19.61,0,29.13-.01.63.01,1.27,0,1.9h-1.76c-.25-.03-.13-1.53-.14-1.9-.21-9.57-.27-19.8,0-29.37Z"/>
      <path class="cls-2" d="M1027.34,48.31c.01-.63-.01-1.27,0-1.9h1.76c.25.03.13,1.53.14,1.9.21,9.53.22,19.6,0,29.13-.01.63.01,1.27,0,1.9h-1.76c-.25-.03-.13-1.53-.14-1.9-.21-9.53-.22-19.6,0-29.13Z"/>
      <path class="cls-2" d="M1729.06,48.31c.01-.63-.01-1.27,0-1.9h1.9c.01.55-.02,1.11,0,1.66.27,9.55.22,19.8,0,29.37-.01.63.01,1.27,0,1.9h-1.76c-.25-.03-.13-1.53-.14-1.9-.21-9.53-.22-19.6,0-29.13Z"/>
      <path class="cls-2" d="M899.7,48.31c.01-.63-.01-1.27,0-1.9h1.76c.25.03.13,1.53.14,1.9.21,9.53.22,19.6,0,29.13-.01.63.01,1.27,0,1.9h-1.76c-.25-.03-.13-1.53-.14-1.9-.21-9.53-.22-19.6,0-29.13Z"/>
      <path class="cls-2" d="M835.99,48.31c.01-.63-.01-1.27,0-1.9h1.76c.25.03.13,1.53.14,1.9.21,9.53.22,19.6,0,29.13-.01.63.01,1.27,0,1.9h-1.76c-.25-.03-.13-1.53-.14-1.9-.21-9.53-.22-19.6,0-29.13Z"/>
      <path class="cls-2" d="M1841.07,48.31c.01-.71-.01-1.42,0-2.13h1.76c.25.03.13,1.74.14,2.13.18,9.53.27,19.62,0,29.13-.02.55.01,1.11,0,1.66h-1.76c-.26-.04-.13-1.31-.14-1.66-.26-9.52-.18-19.6,0-29.13Z"/>
      <path class="cls-2" d="M708.34,48.31c.01-.63-.01-1.27,0-1.9h1.76c.25.03.13,1.53.14,1.9.21,9.53.22,19.6,0,29.13-.01.63.01,1.27,0,1.9h-1.76c-.25-.03-.13-1.53-.14-1.9-.21-9.53-.22-19.6,0-29.13Z"/>
      <path class="cls-5" d="M1473.76,79.33v-32.92c3.06-.29,1.94.73,1.88,2.71-.25,8.94-.28,18.79,0,27.73.06,1.93,1.13,2.72-1.89,2.48Z"/>
      <path class="cls-5" d="M1348.24,48.07c-.75,8.65-.56,19.96-.25,28.78.03.81.4,1.62.25,2.48-3.02.25-1.95-.56-1.89-2.48.28-8.94.25-18.78,0-27.73-.06-1.99-1.18-3,1.88-2.71-.03.55.05,1.12,0,1.66Z"/>
      <path class="cls-5" d="M1282.4,79.33v-32.92c3.06-.29,1.94.73,1.88,2.71-.25,8.94-.28,18.79,0,27.73.06,1.93,1.13,2.72-1.89,2.48Z"/>
      <path class="cls-5" d="M1156.89,48.07c-.75,8.65-.56,19.96-.25,28.78.03.81.4,1.62.25,2.48-3.02.25-1.95-.56-1.89-2.48.28-8.94.25-18.78,0-27.73-.06-1.99-1.18-3,1.88-2.71-.03.55.05,1.12,0,1.66Z"/>
      <path class="cls-5" d="M1091.05,79.33v-32.92c3.06-.29,1.94.73,1.88,2.71-.25,8.94-.28,18.79,0,27.73.06,1.93,1.13,2.72-1.89,2.48Z"/>
      <path class="cls-5" d="M965.53,48.07c-.75,8.65-.56,19.96-.25,28.78.03.81.4,1.62.25,2.48-3.02.25-1.95-.56-1.89-2.48.28-8.94.25-18.78,0-27.73-.06-1.99-1.18-3,1.88-2.71-.03.55.05,1.12,0,1.66Z"/>
      <path class="cls-5" d="M774.18,48.07c-.75,8.65-.56,19.96-.25,28.78.03.81.4,1.62.25,2.48-3.02.25-1.95-.56-1.89-2.48.28-8.94.25-18.78,0-27.73-.06-1.99-1.18-3,1.88-2.71-.03.55.05,1.12,0,1.66Z"/>
      <path class="cls-5" d="M580.69,79.33v-32.92c3.06-.29,1.94.73,1.88,2.71-.25,8.94-.28,18.79,0,27.73.06,1.93,1.13,2.72-1.89,2.48Z"/>
      <path class="cls-5" d="M389.34,79.33v-32.92c3.06-.29,1.94.73,1.88,2.71-.25,8.94-.28,18.79,0,27.73.06,1.93,1.13,2.72-1.89,2.48Z"/>
      <path class="cls-5" d="M453.04,48.07c-.16-1.98.37-1.7,2.13-1.66.15.86-.22,1.67-.25,2.48-.32,8.82-.51,20.13.25,28.78.05.54-.03,1.11,0,1.66-3.06.3-1.94-.74-1.88-2.71.26-8.91.48-19.8-.25-28.55Z"/>
      <path class="cls-5" d="M261.69,48.07c-.16-1.98.37-1.7,2.13-1.66.15.86-.22,1.67-.25,2.48-.32,8.82-.51,20.13.25,28.78.05.54-.03,1.11,0,1.66-3.06.3-1.94-.74-1.88-2.71.26-8.91.48-19.8-.25-28.55Z"/>
      <path class="cls-5" d="M197.98,79.33v-32.92c3.06-.29,1.94.73,1.88,2.71-.25,8.94-.28,18.79,0,27.73.06,1.93,1.13,2.72-1.89,2.48Z"/>
      <path class="cls-3" d="M1849.37,83.47l-.81.14"/>
      <path class="cls-5" d="M1667.25,46.41v32.92c-3.06.29-1.94-.73-1.88-2.71.25-8.94.28-18.79,0-27.73-.06-1.93-1.13-2.72,1.89-2.48Z"/>
    </g>
  </g>
  <g>
    <path class="cls-2" d="M95.68,32.91c-2.59-17.07-29.8-26.4-44.53-27.94,0,0-5.43-.67-13.26-.24-9.86.73-26.03,4.55-29.25,15.39-1.21,4.08-1.85,8.79-2.88,12.99-2.32,9.4-6.37,16.22-.89,25.6,4.91,8.38,14.08,13.33,22.6,17.3,13.99,4.45,32.46,7.3,48.31,1.19.71-.06,1.38-.2,2.01-.41,1.15-.36,2.21-.93,3.32-1.54,5.58-3.08,9.86-7.61,11.18-14,.78-3.79,1.29-7.77,1.77-11.61.02-.21-.02-.43-.06-.66-.05-.23-.13-.45-.22-.67.21-1.33.51-2.7.71-4.03.39-2.52.86-5.06,1.19-7.58.1-1.25.12-2.53,0-3.79ZM40.68,48.48c-.38-.14-5.38-2.33-4.92-2.78,2.07-.6,3.08-.73,4.65-.92,6.61-.79,14.42.9,19.98,4.59-6.17,2.32-13.66,1.42-19.71-.89Z"/>
    <g>
      <path class="cls-6" d="M90.46,50.2c-.55.14-.39-.1-.54-.3-.63-.81-1.11-2.03-1.77-2.95-14.24-20.02-55.03-26.71-75.67-14.23-1.38.84-2.6,1.92-3.95,2.8l3.37-14.99c1.68-4.92,7.82-8.14,12.44-9.82,17.22-6.24,41.71-2.54,56.73,7.8,4.82,3.32,11.64,9.85,11.68,16.14l-2.28,15.55Z"/>
      <g>
        <path class="cls-6" d="M81,43.68c-11.64-10.45-31.13-14.96-46.47-14.01-14.43.89-38.13,10.17-26.2,28.42,12.76,19.49,58.64,26.91,75.75,10.7,8.51-8.06,4.52-18.27-3.08-25.11ZM60.39,49.37c-6.17,2.32-13.66,1.42-19.71-.89-.38-.14-5.38-2.33-4.92-2.78,1.48-.65,3.08-.73,4.65-.92,6.61-.79,14.42.9,19.98,4.59Z"/>
        <g>
          <path class="cls-2" d="M41.88,41.5c-22.38,1.6-20.14,20.08-.72,25.45,7.63,2.11,26.05,2.39,27.7-8.16,1.92-12.28-17.67-17.95-26.98-17.29ZM35.76,45.7c1.43-.46,3.08-.73,4.65-.92,6.61-.79,14.42.9,19.98,4.59-6.17,2.32-13.66,1.42-19.71-.89-.38-.14-5.38-2.33-4.92-2.78Z"/>
          <path class="cls-4" d="M32.32,47.41c8.57,6.49,20.91,8.2,30.99,4.5,4.26,4.2,2.9,8.71-2.17,11.25-7.39,3.71-19.18,2.02-26.08-2.2-5.25-3.21-9.3-9.07-2.75-13.55Z"/>
        </g>
      </g>
    </g>
  </g>
</svg>