<?xml version="1.0" encoding="UTF-8"?>
<svg id="Capa_1" data-name="Capa 1" xmlns="http://www.w3.org/2000/svg" viewBox="0 0 160 160">
  <defs>
    <style>
      .cls-1 {
        fill: #bc3637;
      }
    </style>
  </defs>
  <g>
    <polygon points="72.39 109.33 67.93 99.86 50.46 99.72 42.32 87.33 61.57 87.33 61.96 86.59 50.94 62.4 28.57 111.17 13.35 111.17 46.72 38.74 55.34 38.74 72.39 75.78 72.39 109.33"/>
    <g>
      <polygon points="146.46 98.7 146.46 111.17 87.79 111.17 87.79 34.9 98.42 42.42 98.42 98.7 98.97 98.7 146.46 98.7"/>
      <polygon class="cls-1" points="85.59 34.9 85.59 111.17 74.59 111.17 74.59 40.4 85.59 34.9"/>
    </g>
    <g>
      <polygon points="122.25 53.6 122.25 96.5 111.25 96.5 111.25 47.37 122.25 53.6"/>
      <polygon class="cls-1" points="109.05 47.73 109.05 96.5 100.62 96.5 100.62 52.13 109.05 47.73"/>
      <polygon points="146.46 66.8 146.46 96.5 135.46 96.5 135.46 60.93 146.46 66.8"/>
      <polygon class="cls-1" points="133.62 60.93 133.62 96.5 124.45 96.5 124.45 66.25 133.62 60.93"/>
    </g>
  </g>
  <g>
    <path d="M18.64,123.83h-3.13l-.5,1.09h-1.7l3.74-8.02h.05l3.74,8.02h-1.7l-.5-1.09ZM18.03,122.49l-.95-2.09-.96,2.09h1.91Z"/>
    <path d="M28.13,125c-.55,0-1.25-.3-1.99-.77-.57.57-1.32.87-2.18.87-1.83,0-2.68-1.36-2.68-2.41,0-.9.63-1.82,1.22-2.21-.31-.55-.5-1.08-.5-1.52,0-1.01.98-2.08,2.2-2.08,1.08,0,1.95.86,2.14,1.76l-1.51.3c-.08-.34-.39-.61-.69-.61s-.59.27-.59.69c0,.78.99,2.09,2.1,3.1.11-.33.17-.7.18-1.09l1.47-.02c-.02.8-.17,1.49-.41,2.07.47.29.9.47,1.23.47v1.46ZM24.87,123.27c-.58-.5-1.13-1.07-1.59-1.65-.28.24-.51.53-.51.96,0,.61.36.99,1.11.99.39,0,.72-.1.99-.29Z"/>
    <path d="M33.74,123.36v1.56h-4.72v-7.83h1.57v6.27h3.15Z"/>
    <path d="M45.2,116.9v8.02h-1.57v-3.41l-2.25,3.28h-.01l-2.26-3.28v3.41h-1.57v-8.02h.09l3.75,5.17,3.74-5.17h.09Z"/>
    <path d="M51.32,123.83h-3.13l-.5,1.09h-1.7l3.74-8.02h.05l3.74,8.02h-1.7l-.5-1.09ZM50.71,122.49l-.95-2.09-.96,2.09h1.91Z"/>
    <path d="M58.28,118.66h-1.92v6.27h-1.58v-6.27h-1.93v-1.56h5.43v1.56Z"/>
    <path d="M60.74,118.65v1.53h2.7v1.57h-2.7v1.62h3.15v1.56h-4.72v-7.83h4.72v1.55h-3.15Z"/>
    <path d="M69.11,124.93l-2.49-3.7v3.7h-1.57v-7.83s2.55,0,2.55,0c1.46,0,2.66,1.13,2.66,2.54,0,1.01-.61,1.88-1.45,2.18l2.22,3.11h-1.92ZM66.62,120.62h1.01c.53,0,1.01-.42,1.01-.98s-.48-.99-1.01-.99h-1.01v1.97Z"/>
    <path d="M71.79,117.1h1.57v7.83h-1.57v-7.83Z"/>
    <path d="M79.47,123.83h-3.13l-.5,1.09h-1.7l3.74-8.02h.05l3.74,8.02h-1.7l-.5-1.09ZM78.86,122.49l-.95-2.09-.96,2.09h1.91Z"/>
    <path d="M87.18,123.36v1.56h-4.72v-7.83h1.57v6.27h3.15Z"/>
    <path d="M89.63,118.65v1.53h2.7v1.57h-2.7v1.62h3.15v1.56h-4.72v-7.83h4.72v1.55h-3.15Z"/>
    <path d="M93.53,123.58l1.26-.88c.35.55.85.81,1.52.81.74,0,1.23-.3,1.23-.72,0-.57-.94-1.02-1.76-1.43-.88-.44-1.85-.92-1.85-2.17,0-1.36,1.15-2.25,2.58-2.25,1.07,0,1.95.44,2.31,1.39l-1.16.81c-.23-.47-.68-.66-1.12-.66-.59,0-1.02.34-1.02.74,0,.47.59.63,1.49,1.05,1.3.61,2.11,1.27,2.11,2.48,0,1.43-1.17,2.34-2.84,2.34-1.28,0-2.23-.53-2.75-1.51Z"/>
    <path d="M107.71,123.36v1.56h-4.72v-7.83h1.57v6.27h3.15Z"/>
    <path d="M108.59,117.1h1.57v7.83h-1.57v-7.83Z"/>
    <path d="M119.05,121.19c0,2.46-1.69,3.89-3.73,3.89-2.31,0-4.12-1.83-4.12-4.06s1.83-4.08,4.07-4.08c1.01.01,2.1.48,2.87,1.22l-.87,1.31c-.61-.6-1.31-.94-2.01-.94-1.21,0-2.44,1.03-2.44,2.49,0,1.36,1.06,2.48,2.59,2.48,1.12,0,1.92-.57,1.97-1.52h-2.03v-1.45h3.68c.02.23.04.45.04.66Z"/>
    <path d="M121.64,118.65v1.53h2.7v1.57h-2.7v1.62h3.15v1.56h-4.72v-7.83h4.72v1.55h-3.15Z"/>
    <path d="M130.01,124.93l-2.49-3.7v3.7h-1.57v-7.83s2.55,0,2.55,0c1.46,0,2.66,1.13,2.66,2.54,0,1.01-.61,1.88-1.45,2.18l2.22,3.11h-1.92ZM127.52,120.62h1.01c.53,0,1.01-.42,1.01-.98s-.48-.99-1.01-.99h-1.01v1.97Z"/>
    <path d="M132.34,121.02c0-2.25,1.83-4.08,4.07-4.08s4.07,1.84,4.07,4.08-1.84,4.06-4.08,4.06-4.07-1.83-4.07-4.06ZM138.89,121.01c0-1.37-1.12-2.49-2.49-2.49s-2.48,1.12-2.48,2.49,1.11,2.47,2.48,2.47,2.49-1.11,2.49-2.47Z"/>
    <path d="M141.1,123.58l1.26-.88c.35.55.85.81,1.52.81.74,0,1.23-.3,1.23-.72,0-.57-.94-1.02-1.76-1.43-.88-.44-1.85-.92-1.85-2.17,0-1.36,1.15-2.25,2.58-2.25,1.07,0,1.95.44,2.31,1.39l-1.16.81c-.23-.47-.68-.66-1.12-.66-.59,0-1.02.34-1.02.74,0,.47.59.63,1.49,1.05,1.3.61,2.11,1.27,2.11,2.48,0,1.43-1.17,2.34-2.84,2.34-1.28,0-2.23-.53-2.75-1.51Z"/>
  </g>
</svg>